<svg height="512" viewBox="0 0 53 58" width="512" xmlns="http://www.w3.org/2000/svg"><g id="Page-1" fill="none" fill-rule="evenodd"><g id="016---Roman-Helmet" fill-rule="nonzero" transform="translate(0 -1)"><path id="Shape" d="m52.02 10.63c-6.52329-7.05318125-16.0300102-10.55546142-25.57-9.42-.4287035.05773715-.7716814.38457493-.85.81l-.6 2.98-1.91-2.55c-.2498561-.32721798-.6713839-.47297991-1.07-.37-3.1635042.87033942-6.1608146 2.25917205-8.87 4.11-.360942.25704223-.5111949.71998351-.37 1.14l1.22 3.67-3.32-1.99c-.3803815-.23244067-.86821679-.18772244-1.2.11-2.1938613 2.0538849-4.06495983 4.4273144-5.55 7.04-.1974058.3575816-.16197252.7985291.09 1.12l2.98 3.72h-4.56c-.43081364-.0039347-.81481249.2709276-.95.68-.99142051 3.0071069-1.49446697 6.1536793-1.49 9.32.00009159 2.5510237.32606321 5.0915861.97 7.56.07420565.2743151.26161615.5041038.51540696.6319533s.54999033.1416839.81459304.0380467c2.68-1.06 7.06-3.27 9.7-7.23.0084153.0069358.0191063.0104995.03.01 1.0187314.4081083 2.1726408.2923439 3.09-.31.3197026-.1981109.6150553-.4330506.88-.7-.0009706.5515432.0324274 1.1026109.1 1.65.03.27.07.52.12.79 1.2494339-7.1871385 7.4850686-12.4355347 14.78-12.44 1.0075985-.0022508 2.0127996.0982693 3 .3v-3.72c.8138552.2402206 1.6038579.5548827 2.36.94.6025409.3018644 1.3188694.2677535 1.89-.09.9398261-.461654 1.5936883-1.354643 1.75-2.39v-.04c4.3207946.1504048 8.5527124-1.250775 11.93-3.95.203645-.1742539.3281133-.4234965.3450666-.6909817s-.0750513-.5304479-.2550666-.7290183z" fill="#e64c3c"/><path id="Shape" d="m46.25 32.98c-.0613079-.4699119-.4470263-.8304748-.92-.86-.0597324-.6222557-.2113807-1.232219-.45-1.81-1.9024161-4.6259539-5.9805241-8.0031372-10.88-9.01v-3.72c.8138552.2402206 1.6038579.5548827 2.36.94.6025409.3018644 1.3188694.2677535 1.89-.09.9398261-.461654 1.5936883-1.354643 1.75-2.39-5.5203365-3.6950787-12.6275523-4.0477601-18.4865896-.9173602-5.8590372 3.1303999-9.5164918 9.234491-9.5134104 15.8773602 0 .34.01.67.03 1.01 1.0187314.4081083 2.1726408.2923439 3.09-.31.3197026-.1981109.6150553-.4330506.88-.7-.0009706.5515432.0324274 1.1026109.1 1.65.03.27.07.52.12.79v.02c-.1497823.8382996-.2234157 1.6884313-.22 2.54 0 .49.03 1.06.08 1.53l.61 3.6c.1740002 1.0484577-.5024104 2.0498968-1.54 2.28l-5.14 1.14c-.55882946.1245791-1.03747096.4826858-1.31471241.9836324-.27724145.5009467-.326495 1.0966917-.13528759 1.6363676 1.17 3.42 4.56 9.1 13.49 3.46.5875458-.3707077.9456497-1.0152948.95-1.71v-7.69c-.0172291-1.1201128.4173784-2.1999642 1.2057395-2.9958514s1.8640345-1.2407347 2.9842605-1.2341486c.9943781.0502296 1.9348957.4670499 2.64 1.17.2145934.2194615.4056336.4607755.57.72v.01c.3928955.6299181.6008036 1.3575965.6 2.1v1.76l7.97-1.87 7.16-1.68c.4945022-.1225154.8203477-.5941338.76-1.1z" fill="#95a5a5"/><path id="Shape" d="m40.45 48.38c.1910271-.4805411.2894237-.9928823.29-1.51-.0005666-.4351953-.0714813-.8674374-.21-1.28l-1.35-4.04-.18-.55-.03-.11-7.97 1.87v10.68c.0004176.9972559.3959482 1.9537206 1.1 2.66l1.8 1.8c.7062794.7040518 1.6627441 1.0995824 2.66 1.1 1.1068665.0022542 2.1469158-.5293105 2.7934555-1.427723s.8202418-2.0534411.4665445-3.102277l-.42-1.27c-.2573036-.773474-.2325057-1.6130605.07-2.37zm-4.45 6.62h-1c-.5522847 0-1-.4477153-1-1s.4477153-1 1-1h1c.5522847 0 1 .4477153 1 1s-.4477153 1-1 1zm0-4h-1c-.5522847 0-1-.4477153-1-1s.4477153-1 1-1h1c.5522847 0 1 .4477153 1 1s-.4477153 1-1 1zm1-4h-2c-.5522847 0-1-.4477153-1-1s.4477153-1 1-1h2c.5522847 0 1 .4477153 1 1s-.4477153 1-1 1z" fill="#a56a43"/><path id="Shape" d="m45.33 32.12c-.2180489-.0273721-.4385778.0259817-.62.15-.89.59-2.39 1.1-4.98.83-.4134252-.0450439-.8089142.1809498-.98.56-1.71 3.89-6.09 4.95-8.35 5.23-.1643664-.2592245-.3554066-.5005385-.57-.72-.7051043-.7029501-1.6456219-1.1197704-2.64-1.17-1.120226-.0065861-2.1958994.4382614-2.9842605 1.2341486s-1.2229686 1.8757386-1.2057395 2.9958514v7.69c-.0043503.6947052-.3624542 1.3392923-.95 1.71-8.93 5.64-12.32-.04-13.49-3.46-.19120741-.5396759-.14195386-1.1354209.13528759-1.6363676.27724145-.5009466.75588295-.8590533 1.31471241-.9836324l5.14-1.14c1.0375896-.2301032 1.7140002-1.2315423 1.54-2.28l-.61-3.6c-.05-.47-.08-1.04-.08-1.53-.0034157-.8515687.0702177-1.7017004.22-2.54v-.02c1.2494339-7.1871385 7.4850686-12.4355347 14.78-12.44 1.0075985-.0022508 2.0127996.0982693 3 .3 4.8994759 1.0068628 8.9775839 4.3840461 10.88 9.01.2386193.577781.3902676 1.1877443.45 1.81z" fill="#bdc3c7"/><path id="Shape" d="m20.211 34.86c-.0651371.0001231-.1301245-.0062417-.194-.019-.5417268-.106688-.8944767-.6322316-.788-1.174.7769253-3.9923105 3.533443-7.3141517 7.314-8.814.3344387-.1456118.7216316-.0975736 1.0103467.1253516.288715.2229252.4331461.5853693.3768805.9457666-.0562655.3603972-.304301.661569-.6472272.7858818-3.1489112 1.2506899-5.4446376 4.0182236-6.092 7.344-.0925602.4680514-.5028844.8055221-.98.806z" fill="#fff"/><path id="Shape" d="m34 17.58v3.72c-.9872004-.2017307-1.9924015-.3022508-3-.3-7.2949314.0044653-13.5305661 5.2528615-14.78 12.44-.05-.27-.09-.52-.12-.79-.0675726-.5473891-.1009706-1.0984568-.1-1.65-.0011346-4.4219128 2.0868806-8.5844379 5.6319594-11.2274911s8.1304558-3.4559127 12.3680406-2.1925089z" fill="#7f8c8d"/><circle id="Oval" cx="31" cy="25" fill="#fff" r="1"/></g></g></svg>